{"title":"Dil Dhadakne Do (2015) Eros DvD Rip - X264 - [1-3] - M-Subs - Ch","uid":12338095,"size":1598005020,"categoryP":"video","categoryS":"movies","magnet":"?xt=urn:btih:3ac42c91eae414e8c8f99e68389bd7cf0bf347bc&amp;dn=Dil+Dhadakne+Do+%282015%29+Eros+DvD+Rip+-+X264+-+%5B1-3%5D+-+M-Subs+-+Ch&amp;tr=udp%3A%2F%2Ftracker.openbittorrent.com%3A80&amp;tr=udp%3A%2F%2Fopen.demonii.com%3A1337&amp;tr=udp%3A%2F%2Ftracker.coppersurfer.tk%3A6969&amp;tr=udp%3A%2F%2Fexodus.desync.com%3A6969","seeders":10,"leechers":5,"uploader":"SS132203","files":6,"time":1441268182,"description":"Dil Dhadakne Do (2015) Eros DvD Rip - X264 - [1-3] - M-Subs - Chapt - 5.1 - Team IcTv -={SPARROW}=-\n &lt;a href=&quot;\nhttp://imgsparrow.co/image/8qx&quot; rel=&quot;nofollow&quot; target=&quot;_NEW&quot;&gt;\nhttp://imgsparrow.co/image/8qx&lt;/a&gt;\n &lt;a href=&quot;\nhttp://imgsparrow.co/image/qZ&quot; rel=&quot;nofollow&quot; target=&quot;_NEW&quot;&gt;\nhttp://imgsparrow.co/image/qZ&lt;/a&gt;\n &lt;a href=&quot;\nhttp://imgsparrow.co/image/9b&quot; rel=&quot;nofollow&quot; target=&quot;_NEW&quot;&gt;\nhttp://imgsparrow.co/image/9b&lt;/a&gt;\n\nInfo : - \n\nMovie Info\nBanner : Junglee Pictures\nYear : 2015\nCast : Anil Kapoor, Shefali Shah, Priyanka ..\nVideo: X264\nAudio : AC 3 5.1\nGenre : Comedy/Drama\nSubtitles :Arabic - English\nResolution : 720 x 304\nRuntime : 2hr 46min XX\nSource : Team IcTv \nSAMPLE : YES\n\nFormat : Mkv\nFile size : 1.47 GiB\nDuration : 2h 46mn\nOverall bit rate : 1 257 Kbps\nEncoded date : UTC 2015-09-02 21:59:46\nWriting application : mkvmerge v7.7.0 ('Six Voices') 32bit built on Feb 28 2015 23:23:00\nWriting library : libebml v1.3.1 + libmatroska v1.4.2\nDURATION : 02:46:58.400000000\nNUMBER_OF_FRAMES : 313075\nNUMBER_OF_BYTES : 480883200\n_STATISTICS_WRITING_APP : mkvmerge v7.7.0 ('Six Voices') 32bit built on Feb 28 2015 23:23:00\n_STATISTICS_WRITING_DATE_UTC : 2015-09-02 21:59:46\n_STATISTICS_TAGS : BPS DURATION NUMBER_OF_FRAMES NUMBER_OF_BYTES\n\nVideo\nID : 1\nFormat : AVC\nFormat/Info : Advanced Video Codec\nFormat profile : High@L3\nFormat settings, CABAC : Yes\nFormat settings, ReFrames : 4 frames\nCodec ID : V_MPEG4/ISO/AVC\nDuration : 2h 46mn\nBit rate : 871 Kbps\nWidth : 720 pixels\nHeight : 304 pixels\nDisplay aspect ratio : 2.35:1\nFrame rate mode : Constant\nFrame rate : 29.970 fps\nColor space : YUV\nChroma subsampling : 4:2:0\nBit depth : 8 bits\nScan type : Progressive\nBits/(Pixel*Frame) : 0.133\nStream size : 1 013 MiB (67%)\n\nAudio\nID : 2\nFormat : AC-3\nFormat/Info : Audio Coding 3\nMode extension : CM (complete main)\nFormat settings, Endianness : Big\nCodec ID : A_AC3\nDuration : 2h 46mn\nBit rate mode : Constant\nBit rate : 384 Kbps\nChannel(s) : 6 channels\nChannel positions : Front: L C R, Side: L R, LFE\nSampling rate : 48.0 KHz\nCompression mode : Lossy\nStream size : 459 MiB (31%)\nDefault : Yes\nForced : No\n\nMenu\n00:00:00.000 : en:Opening Credits\n00:02:45.000 : en:Meet The Mehra's\n00:04:07.000 : en:Kabir Likes To Fly\n00:10:07.500 : en:Company On The Verge Of Bankruptcy\n00:18:36.000 : en:The Ship Sails\n00:22:25.500 : en:Kabir &amp; Farah - Noorie &amp; Rana\n00:34:59.000 : en: D o cking At Izmir\n00:38:45.000 : en:Girls Like To Swing...\n00:43:27.000 : en:Istnbul\n00:49:31.500 : en:Pehli Baar...\n01:02:55.500 : en:Family Lunch\n01:11:10.000 : en:Sunny Arrives\n01:18:12.000 : en:Neelam Confronts Kamal\n01:27:25.400 : en:Kabir Makes Noorie An Offer\n01:29:14.400 : en:Gallan Goodiyaan...\n01:35:54.900 : en:Ayesha Asks For A Divorce\n01:42:20.900 : en:Kamal Shows Kabir His Place\n01:50:35.900 : en:Sunny &amp; Aesha Makeup\n01:53:20.900 : en:Kamal Leaks News Of Engagement\n01:59:20.400 : en:Farah Breaks up With Kabir\n02:07:33.900 : en:Kamal Collapses\n02:11:32.900 : en:Mehra's Come Together\n02:14:09.900 : en:Kabir Jumps The Ship\n02:26:17.400 : en:The Mehra's To The Rescue\n02:31:56.900 : en:End Credits\n\nScreens : - \n &lt;a href=&quot;\nhttp://imgsparrow.co/image/8kf&quot; rel=&quot;nofollow&quot; target=&quot;_NEW&quot;&gt;\nhttp://imgsparrow.co/image/8kf&lt;/a&gt; &lt;a href=&quot;\nhttp://imgsparrow.co/image/8kI&quot; rel=&quot;nofollow&quot; target=&quot;_NEW&quot;&gt;\nhttp://imgsparrow.co/image/8kI&lt;/a&gt; &lt;a href=&quot;\nhttp://imgsparrow.co/image/8kP&quot; rel=&quot;nofollow&quot; target=&quot;_NEW&quot;&gt;\nhttp://imgsparrow.co/image/8kP&lt;/a&gt; &lt;a href=&quot;\nhttp://imgsparrow.co/image/8kW&quot; rel=&quot;nofollow&quot; target=&quot;_NEW&quot;&gt;\nhttp://imgsparrow.co/image/8kW&lt;/a&gt; &lt;a href=&quot;\nhttp://imgsparrow.co/image/8kX&quot; rel=&quot;nofollow&quot; target=&quot;_NEW&quot;&gt;\nhttp://imgsparrow.co/image/8kX&lt;/a&gt; &lt;a href=&quot;\nhttp://imgsparrow.co/image/8kY&quot; rel=&quot;nofollow&quot; target=&quot;_NEW&quot;&gt;\nhttp://imgsparrow.co/image/8kY&lt;/a&gt; &lt;a href=&quot;\nhttp://imgsparrow.co/image/8kc&quot; rel=&quot;nofollow&quot; target=&quot;_NEW&quot;&gt;\nhttp://imgsparrow.co/image/8kc&lt;/a&gt; &lt;a href=&quot;\nhttp://imgsparrow.co/image/8kd&quot; rel=&quot;nofollow&quot; target=&quot;_NEW&quot;&gt;\nhttp://imgsparrow.co/image/8kd&lt;/a&gt; &lt;a href=&quot;\nhttp://imgsparrow.co/image/8ko&quot; rel=&quot;nofollow&quot; target=&quot;_NEW&quot;&gt;\nhttp://imgsparrow.co/image/8ko&lt;/a&gt;\n &lt;a href=&quot;\nhttp://imgsparrow.co/image/N2&quot; rel=&quot;nofollow&quot; target=&quot;_NEW&quot;&gt;\nhttp://imgsparrow.co/image/N2&lt;/a&gt;","torrent":{"xt":"urn:btih:3ac42c91eae414e8c8f99e68389bd7cf0bf347bc","amp;dn":"Dil+Dhadakne+Do+%282015%29+Eros+DvD+Rip+-+X264+-+%5B1-3%5D+-+M-Subs+-+Ch","amp;tr":["udp%3A%2F%2Ftracker.openbittorrent.com%3A80","udp%3A%2F%2Fopen.demonii.com%3A1337","udp%3A%2F%2Ftracker.coppersurfer.tk%3A6969","udp%3A%2F%2Fexodus.desync.com%3A6969"],"infoHash":"3ac42c91eae414e8c8f99e68389bd7cf0bf347bc","infoHashBuffer":{"type":"Buffer","data":[58,196,44,145,234,228,20,232,200,249,158,104,56,155,215,207,11,243,71,188]},"announce":[],"urlList":[]}}